# 3ds Max Wavefront OBJ Exporter v0.97b - (c)2007 guruware
# File Created: 04.10.2018 17:13:33

mtllib bench.mtl

#
# object bench
#

v  86.6250 6.8320 -40.2500
v  86.6250 6.8320 -35.0938
v  87.2500 6.8320 -34.4688
v  93.0000 6.8320 -35.0938
v  93.0000 6.8320 -40.2500
v  92.3750 6.8320 -40.8438
v  87.7500 0.1708 -35.1875
v  91.8125 0.1708 -35.1875
v  91.8125 76.0625 -35.1875
v  87.7500 76.0625 -35.1875
v  87.3125 0.1708 -39.7188
v  87.3125 0.1708 -35.6563
v  87.3125 76.0625 -35.6563
v  87.3125 76.0625 -39.7188
v  91.8125 0.1708 -40.1875
v  87.7500 0.1708 -40.1875
v  87.7500 76.0625 -40.1875
v  91.8125 76.0625 -40.1875
v  92.3125 0.1708 -39.7188
v  -88.0625 23.4219 -37.6875
v  -88.3125 23.5313 -37.6875
v  -88.3125 23.5313 40.0938
v  -88.0625 23.4219 40.0938
v  91.5000 23.4219 -37.6875
v  91.2500 23.5313 -37.6875
v  91.2500 23.5313 40.0938
v  91.5000 23.4219 40.0938
v  88.8750 20.0156 -36.2188
v  88.8750 23.4219 -36.2813
v  -87.0625 23.4219 -36.2813
v  -87.0625 20.0156 -36.2188
v  88.8750 20.0156 -39.0625
v  -87.0625 20.0156 -39.0625
v  88.8750 23.4219 -39.0625
v  -87.0625 23.4219 -39.0625
v  -85.8750 6.8320 40.9063
v  -85.8750 6.8320 35.7500
v  -86.4375 6.8320 35.1563
v  -92.2500 6.8320 35.7500
v  -92.2500 6.8320 40.9063
v  -91.6250 6.8320 41.5000
v  -86.4375 6.8320 41.5000
v  -87.0000 0.1708 40.8438
v  -86.5625 0.1708 40.3750
v  -86.5625 76.0625 40.3750
v  -87.0000 76.0625 40.8438
v  -91.5625 0.1708 40.3750
v  -91.0625 0.1708 40.8438
v  -91.0625 76.0625 40.8438
v  -91.5625 76.0625 40.3750
v  -87.0000 76.0625 35.8438
v  -86.5625 76.0625 36.3125
v  -86.5625 0.1708 36.3125
v  -87.0000 0.1708 35.8438
v  -91.0625 0.1708 35.8438
v  -91.5625 0.1708 36.3125
v  -91.5625 76.0625 36.3125
v  -91.0625 76.0625 35.8438
v  -85.8750 -0.0268 -40.2500
v  -85.8750 -0.0268 -35.0938
v  -86.4375 -0.0268 -34.4688
v  -91.6250 -0.0268 -40.8438
v  -92.2500 -0.0268 -35.0938
v  -92.2500 -0.0268 -40.2500
v  -91.6250 -0.0268 -34.4688
v  -86.4375 -0.0268 -40.8438
v  -91.6250 6.8320 -34.4688
v  -92.2500 6.8320 -35.0938
v  -85.8750 6.8320 -35.0938
v  -86.4375 6.8320 -34.4688
v  -92.2500 6.8320 -40.2500
v  -91.6250 6.8320 -40.8438
v  -86.4375 6.8320 -40.8438
v  -85.8750 6.8320 -40.2500
v  -87.0000 0.1708 -35.1875
v  -86.5625 0.1708 -35.6563
v  -86.5625 76.0625 -35.6563
v  -87.0000 76.0625 -35.1875
v  -91.5625 0.1708 -35.6563
v  -91.0625 0.1708 -35.1875
v  -91.0625 76.0625 -35.1875
v  -91.5625 76.0625 -35.6563
v  -87.0000 76.0625 -40.1875
v  -86.5625 76.0625 -39.7188
v  -86.5625 0.1708 -39.7188
v  -87.0000 0.1708 -40.1875
v  -91.0625 0.1708 -40.1875
v  -91.5625 0.1708 -39.7188
v  -91.5625 76.0625 -39.7188
v  -91.0625 76.0625 -40.1875
v  -90.3750 76.2500 -37.6875
v  -90.3750 67.7500 -37.6875
v  -90.3750 67.7500 40.0938
v  -90.3750 76.2500 40.0938
v  91.5000 67.7500 -37.6875
v  91.5000 76.2500 -37.6875
v  91.5000 76.2500 40.0938
v  91.5000 67.7500 40.0938
v  89.1875 67.7500 -37.6875
v  89.1875 67.7500 40.0938
v  89.1875 76.2500 -37.6875
v  89.1875 76.2500 40.0938
v  93.0000 6.8320 35.7500
v  93.0000 6.8320 40.9063
v  93.0000 -0.0268 40.9063
v  93.0000 -0.0268 35.7500
v  87.2500 6.8320 35.1563
v  92.3750 6.8320 35.1563
v  92.3750 -0.0268 35.1563
v  87.2500 -0.0268 35.1563
v  86.6250 6.8320 35.7500
v  86.6250 6.8320 40.9063
v  87.2500 6.8320 41.5000
v  92.3125 0.1708 -35.6563
v  92.3750 6.8320 41.5000
v  87.3125 0.1708 36.3125
v  87.3125 0.1708 40.3750
v  87.3125 76.0625 40.3750
v  87.3125 76.0625 36.3125
v  91.8125 0.1708 35.8438
v  87.7500 0.1708 35.8438
v  87.7500 76.0625 35.8438
v  91.8125 76.0625 35.8438
v  91.8125 0.1708 40.8438
v  87.7500 0.1708 40.8438
v  92.3125 0.1708 36.3125
v  92.3750 6.8320 -34.4688
v  87.2500 -0.0268 -34.4688
v  92.3750 -0.0268 -34.4688
v  93.0000 -0.0268 -35.0938
v  93.0000 -0.0268 -40.2500
v  87.2500 6.8320 -40.8438
v  92.3750 -0.0268 -40.8438
v  87.2500 -0.0268 -40.8438
v  -87.0625 23.4219 37.0313
v  -87.0625 23.5313 37.2813
v  88.8750 23.5313 37.2813
v  88.8750 23.4219 37.0313
v  88.8750 23.5313 -38.8125
v  -87.0625 23.5313 -38.8125
v  -88.0625 20.0156 -37.6875
v  -88.0625 20.0156 40.0938
v  -90.3750 20.0156 -37.6875
v  -90.3750 20.0156 40.0938
v  -90.3750 23.4219 -37.6875
v  -90.3750 23.4219 40.0938
v  91.5000 20.0156 -37.6875
v  91.5000 20.0156 40.0938
v  89.1875 20.0156 -37.6875
v  89.1875 20.0156 40.0938
v  89.1875 23.4219 -37.6875
v  89.1875 23.4219 40.0938
v  88.8750 20.0156 39.8438
v  88.8750 23.4219 39.8438
v  -87.0625 23.4219 39.8438
v  -87.0625 20.0156 39.8438
v  88.8750 20.0156 37.0313
v  -87.0625 20.0156 37.0313
v  -85.8750 -0.0268 35.7500
v  -85.8750 -0.0268 40.9063
v  -86.4375 -0.0268 41.5000
v  -91.6250 -0.0268 35.1563
v  -92.2500 -0.0268 40.9063
v  -92.2500 -0.0268 35.7500
v  -91.6250 -0.0268 41.5000
v  -86.4375 -0.0268 35.1563
v  -91.6250 6.8320 35.1563
v  -90.1250 23.5313 40.0938
v  -90.1250 23.5313 -37.6875
v  -88.0625 67.7500 -37.6875
v  -88.0625 76.2500 -37.6875
v  -88.0625 76.2500 40.0938
v  -88.0625 67.7500 40.0938
v  92.3750 -0.0268 41.5000
v  86.6250 -0.0268 40.9063
v  86.6250 -0.0268 35.7500
v  87.2500 -0.0268 41.5000
v  92.3125 0.1708 40.3750
v  92.3125 76.0625 40.3750
v  91.8125 76.0625 40.8438
v  87.7500 76.0625 40.8438
v  92.3125 76.0625 36.3125
v  88.8750 67.7500 39.8438
v  88.8750 76.2500 39.8438
v  -87.0625 76.2500 39.8438
v  -87.0625 67.7500 39.8438
v  88.8750 67.7500 37.0313
v  -87.0625 67.7500 37.0313
v  88.8750 76.2500 37.0313
v  -87.0625 76.2500 37.0313
v  86.6250 -0.0268 -35.0938
v  86.6250 -0.0268 -40.2500
v  92.3125 76.0625 -35.6563
v  92.3125 76.0625 -39.7188
v  88.8750 67.7500 -36.2188
v  88.8750 76.2500 -36.2188
v  -87.0625 76.2500 -36.2188
v  -87.0625 67.7500 -36.2188
v  88.8750 67.7500 -39.0625
v  -87.0625 67.7500 -39.0625
v  88.8750 76.2500 -39.0625
v  -87.0625 76.2500 -39.0625
v  89.4375 23.5313 40.0938
v  89.4375 23.5313 -37.6875
v  88.8750 23.5313 -36.5625
v  -87.0625 23.5313 -36.5625
v  -87.0625 23.5313 39.5938
v  88.8750 23.5313 39.5938
v  -98.1250 77.6250 48.2188
v  -98.1250 77.6250 -48.1875
v  -98.1250 75.6875 -48.1875
v  -98.1250 75.6875 48.2188
v  95.4375 80.0000 -22.7656
v  95.4375 80.0000 -45.5313
v  47.7500 80.0000 -45.5313
v  -47.7188 80.0000 45.5313
v  0.0001 80.0000 45.5313
v  0.0034 80.0000 22.7813
v  47.7188 80.0000 45.5313
v  47.7188 80.0000 22.7656
v  95.4375 80.0000 22.7656
v  47.7500 80.0000 0.0021
v  95.4375 80.0000 -0.0012
v  47.7500 80.0000 -22.7656
v  0.0101 80.0000 -22.7656
v  0.0068 80.0000 0.0055
v  -47.7188 80.0000 0.0088
v  -47.7188 80.0000 22.7813
v  -47.7188 80.0000 -22.7656
v  0.0135 80.0000 -45.5313
v  -47.7188 80.0000 -45.5313
v  -95.4375 80.0000 -22.7500
v  -95.4375 80.0000 0.0122
v  -95.4375 80.0000 22.7813
v  -95.4375 80.0000 -45.5313
v  -95.4375 80.0000 45.5313
v  98.1250 77.6250 -48.2188
v  98.1250 75.6875 -48.2188
v  98.1250 75.6875 48.2188
v  98.1250 77.6250 48.2188
v  95.4375 80.0000 45.5313
v  97.0000 74.8750 47.0938
v  -97.0000 74.8750 47.0938
v  -97.0000 74.8750 -47.0938
v  97.0000 74.8750 -47.0938
# 245 vertices

vn 0.0000 1.0000 -0.0000
vn 0.0000 0.0000 1.0000
vn -1.0000 0.0000 -0.0000
vn 0.0000 0.0000 -1.0000
vn 0.0000 -1.0000 -0.0000
vn 0.4008 0.9162 -0.0000
vn 0.0000 0.0183 0.9998
vn 0.7311 0.0000 0.6823
vn -0.6839 0.0000 0.7295
vn 0.7311 0.0000 -0.6823
vn -0.6839 0.0000 -0.7295
vn 1.0000 0.0000 -0.0000
vn -0.7071 0.0000 0.7071
vn 0.7433 0.0000 0.6690
vn -0.6887 0.0000 -0.7250
vn 0.7260 0.0000 -0.6877
vn 0.0000 0.9162 -0.4008
vn -0.6887 0.0000 0.7250
vn 0.7260 0.0000 0.6877
vn -0.4008 0.9162 -0.0000
vn 0.6887 0.0000 0.7250
vn 0.6887 0.0000 -0.7250
vn 0.6839 0.0000 0.7295
vn -0.7311 0.0000 0.6823
vn 0.6839 0.0000 -0.7295
vn -0.7311 0.0000 -0.6823
vn 0.7071 0.0000 0.7071
vn 0.0000 0.9320 0.3624
vn 0.0000 0.9162 0.4008
vn -0.9116 0.4110 -0.0000
vn -0.0001 0.4109 -0.9117
vn -0.0002 0.0000 -1.0000
vn -0.0001 0.4084 -0.9128
vn 0.0000 0.4110 0.9116
vn 0.9116 0.4110 -0.0000
vn -0.0001 0.7492 -0.6623
vn 0.0000 0.7455 -0.6665
vn 0.6622 0.7493 -0.0000
vn -0.6622 0.7493 -0.0000
vn 0.0000 0.7493 0.6622
vn 0.2378 -0.9418 0.2378
vn -0.2378 -0.9418 0.2378
vn -0.2370 -0.9404 -0.2438
vn 0.2378 -0.9418 -0.2378
vn -0.3263 -0.8880 -0.3240
vn 0.3216 -0.8906 -0.3216
vn 0.3216 -0.8906 0.3216
vn -0.3216 -0.8906 0.3216
# 48 vertex normals

vt 0.2776 0.6548 0.6548
vt 0.3335 0.6548 0.6548
vt 0.3401 0.6611 0.6611
vt 0.3335 0.7239 0.7239
vt 0.2776 0.7239 0.7239
vt 0.2710 0.7173 0.7173
vt 0.8413 0.2456 0.2456
vt 0.8984 0.2456 0.2456
vt 0.8984 0.8522 0.8522
vt 0.8413 0.8522 0.8522
vt 0.8389 0.2842 0.2842
vt 0.8955 0.2842 0.2842
vt 0.8955 0.8906 0.8906
vt 0.8389 0.8906 0.8906
vt 0.8389 0.2964 0.2964
vt 0.8955 0.2964 0.2964
vt 0.8955 0.9026 0.9026
vt 0.8389 0.9026 0.9026
vt 0.3384 0.5703 0.5703
vt 0.3826 0.5703 0.5703
vt 0.3877 0.5754 0.5754
vt 0.3333 0.6196 0.6196
vt 0.3826 0.6248 0.6248
vt 0.3384 0.6248 0.6248
vt 0.8950 0.0249 0.0249
vt 0.8984 0.0249 0.0249
vt 0.8984 0.9607 0.9607
vt 0.8950 0.9607 0.9607
vt 0.7798 0.0249 0.0249
vt 0.7798 0.9607 0.9607
vt 0.9019 0.9768 0.9768
vt 0.8540 0.9768 0.9768
vt 0.8540 0.0410 0.0410
vt 0.9019 0.0410 0.0410
vt 0.8979 0.9635 0.9635
vt 0.7827 0.9635 0.9635
vt 0.7827 0.0273 0.0273
vt 0.8979 0.0273 0.0273
vt 0.3877 0.6196 0.6196
vt 0.3401 0.7173 0.7173
vt 0.8325 0.3174 0.3174
vt 0.8394 0.3174 0.3174
vt 0.8394 0.9240 0.9240
vt 0.8325 0.9240 0.9240
vt 0.9023 0.2842 0.2842
vt 0.9023 0.8906 0.8906
vt 0.9028 0.9240 0.9240
vt 0.8960 0.9240 0.9240
vt 0.8960 0.3174 0.3174
vt 0.9028 0.3174 0.3174
vt 0.8320 0.2842 0.2842
vt 0.8320 0.8906 0.8906
vt 0.3174 0.5327 0.5327
vt 0.2612 0.5327 0.5327
vt 0.2546 0.5261 0.5261
vt 0.3237 0.4702 0.4702
vt 0.2612 0.4639 0.4639
vt 0.3174 0.4639 0.4639
vt 0.2546 0.4702 0.4702
vt 0.3237 0.5261 0.5261
vt 0.2323 0.7358 0.7358
vt 0.2323 0.7424 0.7424
vt 0.1110 0.7424 0.7424
vt 0.1110 0.7358 0.7358
vt 0.1786 0.5354 0.5354
vt 0.1786 0.5420 0.5420
vt 0.0573 0.5420 0.5420
vt 0.0573 0.5354 0.5354
vt 0.1110 0.8048 0.8048
vt 0.1110 0.7982 0.7982
vt 0.2323 0.7982 0.7982
vt 0.2323 0.8048 0.8048
vt 0.1786 0.4731 0.4731
vt 0.1786 0.4795 0.4795
vt 0.0573 0.4795 0.4795
vt 0.0573 0.4731 0.4731
vt 0.3003 0.2637 0.2637
vt 0.3003 0.3198 0.3198
vt 0.1790 0.3198 0.3198
vt 0.1790 0.2637 0.2637
vt 0.2493 0.5662 0.5662
vt 0.2493 0.6221 0.6221
vt 0.1279 0.6221 0.6221
vt 0.1279 0.5662 0.5662
vt 0.9014 0.9635 0.9635
vt 0.9014 0.0273 0.0273
vt 0.3333 0.5754 0.5754
vt 0.3135 0.8363 0.8363
vt 0.3135 0.8923 0.8923
vt 0.1924 0.8923 0.8923
vt 0.1924 0.8363 0.8363
vt 0.2710 0.6611 0.6611
vt 0.2935 0.0718 0.0718
vt 0.5928 0.0718 0.0718
vt 0.5928 0.0776 0.0776
vt 0.2935 0.0776 0.0776
vt 0.6123 0.9144 0.9144
vt 0.6123 0.9851 0.9851
vt 0.4641 0.9851 0.9851
vt 0.1677 0.7024 0.7024
vt 0.3159 0.7024 0.7024
vt 0.3159 0.7731 0.7731
vt 0.4641 0.7024 0.7024
vt 0.4641 0.7731 0.7731
vt 0.6123 0.7731 0.7731
vt 0.4641 0.8438 0.8438
vt 0.6123 0.8438 0.8438
vt 0.4641 0.9144 0.9144
vt 0.3159 0.9144 0.9144
vt 0.3159 0.8438 0.8438
vt 0.1677 0.8438 0.8438
vt 0.1677 0.7731 0.7731
vt 0.1678 0.9144 0.9144
vt 0.3159 0.9851 0.9851
vt 0.1678 0.9851 0.9851
vt 0.0196 0.9144 0.9144
vt 0.0196 0.8438 0.8438
vt 0.0196 0.7731 0.7731
vt 0.0196 0.9851 0.9851
vt 0.0196 0.7024 0.7024
vt 0.9023 0.0854 0.0854
vt 0.9023 0.0913 0.0913
vt 0.2932 0.0913 0.0913
vt 0.2932 0.0854 0.0854
vt 0.9028 0.0918 0.0918
vt 0.9028 0.0981 0.0981
vt 0.2935 0.0981 0.0981
vt 0.2935 0.0918 0.0918
vt 0.2935 0.0845 0.0845
vt 0.2935 0.0786 0.0786
vt 0.5928 0.0786 0.0786
vt 0.5928 0.0845 0.0845
vt 0.6206 0.9934 0.9934
vt 0.0113 0.9934 0.9934
vt 0.6123 0.7024 0.7024
vt 0.6206 0.6941 0.6941
vt 0.0113 0.6941 0.6941
vt 0.1866 0.0933 0.0933
vt 0.0061 0.0933 0.0933
vt 0.0061 0.0059 0.0059
vt 0.1866 0.0054 0.0054
vt 0.0051 0.0044 0.0044
vt 0.1876 0.0044 0.0044
vt 0.1876 0.0942 0.0942
vt 0.0051 0.0942 0.0942
# 145 texture coords

o bench
g bench
usemtl bench_shader
s 1
f 1/1/1 2/2/1 3/3/1 
f 4/4/1 5/5/1 6/6/1 
f 1/1/1 4/4/1 6/6/1 
f 7/7/2 8/8/2 9/9/2 
f 9/9/2 10/10/2 7/7/2 
f 11/11/3 12/12/3 13/13/3 
f 13/13/3 14/14/3 11/11/3 
f 15/15/4 16/16/4 17/17/4 
f 17/17/4 18/18/4 15/15/4 
f 8/19/5 7/20/5 12/21/5 
f 19/22/5 8/19/5 12/21/5 
f 19/22/5 12/21/5 16/23/5 
f 15/24/5 19/22/5 16/23/5 
f 20/25/6 21/26/6 22/27/6 
f 22/27/6 23/28/6 20/25/6 
f 24/25/6 25/26/6 26/27/6 
f 26/27/6 27/28/6 24/25/6 
f 28/29/7 29/25/7 30/28/7 
f 30/28/7 31/30/7 28/29/7 
f 32/31/5 28/32/5 31/33/5 
f 31/33/5 33/34/5 32/31/5 
f 34/35/4 32/36/4 33/37/4 
f 33/37/4 35/38/4 34/35/4 
f 36/4/1 37/5/1 38/6/1 
f 39/1/1 36/4/1 38/6/1 
f 39/1/1 40/2/1 41/3/1 
f 12/21/5 11/39/5 16/23/5 
f 41/3/1 42/40/1 36/4/1 
f 39/1/1 41/3/1 36/4/1 
f 43/41/8 44/42/8 45/43/8 
f 45/43/8 46/44/8 43/41/8 
f 47/12/9 48/45/9 49/46/9 
f 49/46/9 50/13/9 47/12/9 
f 51/47/10 52/48/10 53/49/10 
f 53/49/10 54/50/10 51/47/10 
f 55/51/11 56/11/11 57/14/11 
f 57/14/11 58/52/11 55/51/11 
f 44/42/12 53/49/12 52/48/12 
f 52/48/12 45/43/12 44/42/12 
f 48/7/2 43/8/2 46/9/2 
f 46/9/2 49/10/2 48/7/2 
f 56/11/3 47/12/3 50/13/3 
f 50/13/3 57/14/3 56/11/3 
f 54/15/4 55/16/4 58/17/4 
f 58/17/4 51/18/4 54/15/4 
f 59/53/5 60/54/5 61/55/5 
f 59/53/5 61/55/5 62/56/5 
f 61/55/5 63/57/5 62/56/5 
f 63/57/5 64/58/5 62/56/5 
f 61/55/5 65/59/5 63/57/5 
f 66/60/5 59/53/5 62/56/5 
f 67/61/13 68/62/13 63/63/13 
f 63/63/13 65/64/13 67/61/13 
f 69/65/14 70/66/14 61/67/14 
f 61/67/14 60/68/14 69/65/14 
f 62/69/15 64/70/15 71/71/15 
f 71/71/15 72/72/15 62/69/15 
f 73/73/16 74/74/16 59/75/16 
f 59/75/16 66/76/16 73/73/16 
f 68/62/3 71/71/3 64/70/3 
f 64/70/3 63/63/3 68/62/3 
f 70/77/2 67/78/2 65/79/2 
f 65/79/2 61/80/2 70/77/2 
f 74/74/12 69/65/12 60/68/12 
f 60/68/12 59/75/12 74/74/12 
f 72/81/4 73/82/4 66/83/4 
f 66/83/4 62/84/4 72/81/4 
f 67/3/1 70/40/1 69/4/1 
f 71/1/1 67/3/1 69/4/1 
f 75/41/8 76/42/8 77/43/8 
f 77/43/8 78/44/8 75/41/8 
f 79/12/9 80/45/9 81/46/9 
f 81/46/9 82/13/9 79/12/9 
f 83/47/10 84/48/10 85/49/10 
f 85/49/10 86/50/10 83/47/10 
f 87/51/11 88/11/11 89/14/11 
f 89/14/11 90/52/11 87/51/11 
f 76/42/12 85/49/12 84/48/12 
f 84/48/12 77/43/12 76/42/12 
f 80/7/2 75/8/2 78/9/2 
f 78/9/2 81/10/2 80/7/2 
f 88/11/3 79/12/3 82/13/3 
f 82/13/3 89/14/3 88/11/3 
f 86/15/4 87/16/4 90/17/4 
f 90/17/4 83/18/4 86/15/4 
f 75/19/5 80/20/5 79/21/5 
f 85/22/5 75/19/5 79/21/5 
f 85/22/5 79/21/5 87/23/5 
f 86/24/5 85/22/5 87/23/5 
f 91/85/3 92/36/3 93/37/3 
f 93/37/3 94/86/3 91/85/3 
f 95/29/12 96/26/12 97/27/12 
f 97/27/12 98/30/12 95/29/12 
f 99/31/5 95/32/5 98/33/5 
f 98/33/5 100/34/5 99/31/5 
f 101/85/3 99/36/3 100/37/3 
f 100/37/3 102/86/3 101/85/3 
f 103/74/12 104/65/12 105/68/12 
f 105/68/12 106/75/12 103/74/12 
f 107/81/4 108/82/4 109/83/4 
f 109/83/4 110/84/4 107/81/4 
f 104/4/1 103/5/1 108/6/1 
f 111/1/1 104/4/1 108/6/1 
f 111/1/1 112/2/1 113/3/1 
f 19/22/5 114/87/5 8/19/5 
f 113/3/1 115/40/1 104/4/1 
f 111/1/1 113/3/1 104/4/1 
f 116/11/3 117/12/3 118/13/3 
f 118/13/3 119/14/3 116/11/3 
f 120/15/4 121/16/4 122/17/4 
f 122/17/4 123/18/4 120/15/4 
f 124/19/5 125/20/5 117/21/5 
f 126/22/5 124/19/5 117/21/5 
f 126/22/5 117/21/5 121/23/5 
f 120/24/5 126/22/5 121/23/5 
f 127/88/2 3/89/2 128/90/2 
f 128/90/2 129/91/2 127/88/2 
f 5/74/12 4/65/12 130/68/12 
f 130/68/12 131/75/12 5/74/12 
f 132/81/4 6/82/4 133/83/4 
f 133/83/4 134/84/4 132/81/4 
f 3/3/1 127/40/1 4/4/1 
f 1/1/1 3/3/1 4/4/1 
f 135/38/17 136/86/17 137/85/17 
f 137/85/17 138/35/17 135/38/17 
f 139/85/17 34/35/17 35/38/17 
f 35/38/17 140/86/17 139/85/17 
f 141/29/12 20/25/12 23/28/12 
f 23/28/12 142/30/12 141/29/12 
f 143/31/5 141/32/5 142/33/5 
f 142/33/5 144/34/5 143/31/5 
f 145/35/3 143/36/3 144/37/3 
f 144/37/3 146/38/3 145/35/3 
f 147/29/12 24/25/12 27/28/12 
f 27/28/12 148/30/12 147/29/12 
f 149/31/5 147/32/5 148/33/5 
f 148/33/5 150/34/5 149/31/5 
f 151/35/3 149/36/3 150/37/3 
f 150/37/3 152/38/3 151/35/3 
f 153/29/2 154/25/2 155/28/2 
f 155/28/2 156/30/2 153/29/2 
f 157/31/5 153/32/5 156/33/5 
f 156/33/5 158/34/5 157/31/5 
f 138/35/4 157/36/4 158/37/4 
f 158/37/4 135/38/4 138/35/4 
f 159/53/5 160/54/5 161/55/5 
f 159/53/5 161/55/5 162/56/5 
f 161/55/5 163/57/5 162/56/5 
f 163/57/5 164/58/5 162/56/5 
f 161/55/5 165/59/5 163/57/5 
f 166/60/5 159/53/5 162/56/5 
f 41/61/18 40/62/18 163/63/18 
f 163/63/18 165/64/18 41/61/18 
f 36/65/19 42/66/19 161/67/19 
f 161/67/19 160/68/19 36/65/19 
f 162/69/15 164/70/15 39/71/15 
f 39/71/15 167/72/15 162/69/15 
f 38/73/16 37/74/16 159/75/16 
f 159/75/16 166/76/16 38/73/16 
f 40/62/3 39/71/3 164/70/3 
f 164/70/3 163/63/3 40/62/3 
f 42/77/2 41/78/2 165/79/2 
f 165/79/2 161/80/2 42/77/2 
f 37/74/12 36/65/12 160/68/12 
f 160/68/12 159/75/12 37/74/12 
f 166/83/4 162/84/4 167/81/4 
f 167/81/4 38/82/4 166/83/4 
f 69/4/1 74/5/1 73/6/1 
f 71/1/1 69/4/1 73/6/1 
f 71/1/1 68/2/1 67/3/1 
f 146/38/20 168/27/20 169/26/20 
f 170/29/12 171/26/12 172/27/12 
f 172/27/12 173/30/12 170/29/12 
f 173/33/5 93/34/5 92/31/5 
f 92/31/5 170/32/5 173/33/5 
f 106/53/5 105/54/5 174/55/5 
f 106/53/5 174/55/5 110/56/5 
f 174/55/5 175/57/5 110/56/5 
f 175/57/5 176/58/5 110/56/5 
f 174/55/5 177/59/5 175/57/5 
f 109/60/5 106/53/5 110/56/5 
f 113/61/18 112/62/18 175/63/18 
f 175/63/18 177/64/18 113/61/18 
f 104/65/21 115/66/21 174/67/21 
f 174/67/21 105/68/21 104/65/21 
f 110/69/15 176/70/15 111/71/15 
f 111/71/15 107/72/15 110/69/15 
f 108/73/22 103/74/22 106/75/22 
f 106/75/22 109/76/22 108/73/22 
f 112/62/3 111/71/3 176/70/3 
f 176/70/3 175/63/3 112/62/3 
f 115/77/2 113/78/2 177/79/2 
f 177/79/2 174/80/2 115/77/2 
f 124/41/23 178/42/23 179/43/23 
f 179/43/23 180/44/23 124/41/23 
f 117/12/24 125/45/24 181/46/24 
f 181/46/24 118/13/24 117/12/24 
f 123/47/25 182/48/25 126/49/25 
f 126/49/25 120/50/25 123/47/25 
f 121/51/26 116/11/26 119/14/26 
f 119/14/26 122/52/26 121/51/26 
f 183/29/2 184/26/2 185/27/2 
f 185/27/2 186/30/2 183/29/2 
f 187/31/5 183/32/5 186/33/5 
f 186/33/5 188/34/5 187/31/5 
f 189/85/4 187/36/4 188/37/4 
f 188/37/4 190/86/4 189/85/4 
f 178/42/12 126/49/12 182/48/12 
f 182/48/12 179/43/12 178/42/12 
f 180/9/2 181/10/2 125/7/2 
f 125/7/2 124/8/2 180/9/2 
f 3/61/13 2/62/13 191/63/13 
f 191/63/13 128/64/13 3/61/13 
f 4/65/27 127/66/27 129/67/27 
f 129/67/27 130/68/27 4/65/27 
f 134/69/15 192/70/15 1/71/15 
f 1/71/15 132/72/15 134/69/15 
f 6/73/22 5/74/22 131/75/22 
f 131/75/22 133/76/22 6/73/22 
f 2/62/3 1/71/3 192/70/3 
f 192/70/3 191/63/3 2/62/3 
f 8/41/23 114/42/23 193/43/23 
f 193/43/23 9/44/23 8/41/23 
f 12/12/24 7/45/24 10/46/24 
f 10/46/24 13/13/24 12/12/24 
f 18/47/25 194/48/25 19/49/25 
f 19/49/25 15/50/25 18/47/25 
f 16/51/26 11/11/26 14/14/26 
f 14/14/26 17/52/26 16/51/26 
f 195/29/2 196/26/2 197/27/2 
f 197/27/2 198/30/2 195/29/2 
f 199/31/5 195/32/5 198/33/5 
f 198/33/5 200/34/5 199/31/5 
f 201/85/4 199/36/4 200/37/4 
f 200/37/4 202/86/4 201/85/4 
f 194/48/12 193/43/12 114/42/12 
f 114/42/12 19/49/12 194/48/12 
f 43/19/5 48/20/5 47/21/5 
f 53/22/5 43/19/5 47/21/5 
f 53/22/5 47/21/5 55/23/5 
f 54/24/5 53/22/5 55/23/5 
f 131/53/5 130/54/5 129/55/5 
f 131/53/5 129/55/5 134/56/5 
f 129/55/5 191/57/5 134/56/5 
f 191/57/5 192/58/5 134/56/5 
f 129/55/5 128/59/5 191/57/5 
f 133/60/5 131/53/5 134/56/5 
f 132/92/1 1/1/1 6/6/1 
f 169/26/20 145/35/20 146/38/20 
f 126/22/5 178/87/5 124/19/5 
f 152/38/20 203/27/20 204/26/20 
f 117/21/5 116/39/5 121/23/5 
f 204/26/20 151/35/20 152/38/20 
f 107/92/1 111/1/1 108/6/1 
f 29/25/28 205/85/28 206/86/28 
f 85/22/5 76/87/5 75/19/5 
f 206/86/28 30/28/28 29/25/28 
f 79/21/5 88/39/5 87/23/5 
f 207/86/29 155/28/29 154/25/29 
f 72/92/1 71/1/1 73/6/1 
f 154/25/29 208/85/29 207/86/29 
f 53/22/5 44/87/5 43/19/5 
f 169/26/1 168/27/1 22/27/1 
f 47/21/5 56/39/5 55/23/5 
f 22/27/1 21/26/1 169/26/1 
f 167/92/1 39/1/1 38/6/1 
f 204/26/1 203/27/1 26/27/1 
f 139/85/1 140/86/1 206/86/1 
f 26/27/1 25/26/1 204/26/1 
f 206/86/1 205/85/1 139/85/1 
f 207/86/1 208/85/1 137/85/1 
f 137/85/1 136/86/1 207/86/1 
usemtl DeskWood
f 209/93/30 210/94/30 211/95/3 
f 211/95/3 212/96/3 209/93/30 
f 213/97/1 214/98/1 215/99/1 
f 216/100/1 217/101/1 218/102/1 
f 218/102/1 217/101/1 219/103/1 
f 219/103/1 220/104/1 218/102/1 
f 221/105/1 220/104/1 219/103/1 
f 222/106/1 220/104/1 221/105/1 
f 221/105/1 223/107/1 222/106/1 
f 222/106/1 223/107/1 213/97/1 
f 213/97/1 224/108/1 222/106/1 
f 215/99/1 224/108/1 213/97/1 
f 225/109/1 224/108/1 215/99/1 
f 222/106/1 226/110/1 218/102/1 
f 218/102/1 220/104/1 222/106/1 
f 227/111/1 228/112/1 218/102/1 
f 218/102/1 226/110/1 227/111/1 
f 227/111/1 226/110/1 225/109/1 
f 225/109/1 226/110/1 222/106/1 
f 222/106/1 224/108/1 225/109/1 
f 225/109/1 229/113/1 227/111/1 
f 215/99/1 230/114/1 225/109/1 
f 225/109/1 230/114/1 231/115/1 
f 231/115/1 229/113/1 225/109/1 
f 232/116/1 229/113/1 231/115/1 
f 227/111/1 229/113/1 232/116/1 
f 232/116/1 233/117/1 227/111/1 
f 227/111/1 233/117/1 234/118/1 
f 234/118/1 228/112/1 227/111/1 
f 216/100/1 228/112/1 234/118/1 
f 218/102/1 228/112/1 216/100/1 
f 231/115/1 235/119/1 232/116/1 
f 234/118/1 236/120/1 216/100/1 
f 237/121/31 238/122/32 211/123/32 
f 211/123/32 210/124/33 237/121/31 
f 209/125/34 212/126/2 239/127/2 
f 239/127/2 240/128/34 209/125/34 
f 238/129/12 237/130/35 240/131/35 
f 240/131/35 239/132/12 238/129/12 
f 214/98/36 237/133/31 210/134/33 
f 215/99/37 214/98/36 210/134/33 
f 230/114/37 215/99/37 210/134/33 
f 231/115/37 230/114/37 210/134/33 
f 235/119/37 231/115/37 210/134/33 
f 219/103/1 241/135/1 221/105/1 
f 241/135/38 240/136/35 237/133/35 
f 221/105/38 241/135/38 237/133/35 
f 223/107/38 221/105/38 237/133/35 
f 213/97/38 223/107/38 237/133/35 
f 214/98/38 213/97/38 237/133/35 
f 209/137/30 236/120/39 234/118/39 
f 209/137/30 234/118/39 233/117/39 
f 209/137/30 233/117/39 232/116/39 
f 235/119/39 209/137/30 232/116/39 
f 235/119/39 210/134/30 209/137/30 
f 209/137/34 240/136/34 241/135/40 
f 209/137/34 241/135/40 219/103/40 
f 209/137/34 219/103/40 217/101/40 
f 209/137/34 217/101/40 216/100/40 
f 236/120/40 209/137/34 216/100/40 
f 242/138/41 243/139/42 244/140/43 
f 244/140/43 245/141/44 242/138/41 
f 245/141/44 244/140/43 211/142/45 
f 211/142/45 238/143/46 245/141/44 
f 242/138/41 245/141/44 238/143/46 
f 238/143/46 239/144/47 242/138/41 
f 242/138/41 239/144/47 212/145/48 
f 212/145/48 243/139/42 242/138/41 
f 243/139/42 212/145/48 211/142/45 
f 211/142/45 244/140/43 243/139/42 
# 0 polygons - 342 triangles

