# 3ds Max Wavefront OBJ Exporter v0.97b - (c)2007 guruware
# File Created: 30.04.2018 17:52:01

mtllib ramp.mtl

#
# object ramp
#

v  -90.5000 -5.5000 60.5000
v  -84.5000 -5.5000 60.5000
v  -90.5000 3.3900 60.5000
v  -88.3900 5.5000 60.5000
v  -89.0820 4.0820 60.5000
v  -84.5000 5.5000 60.5000
v  -84.5000 -5.5000 -60.5000
v  -90.5000 -5.5000 -60.5000
v  -90.5000 3.3900 -60.5000
v  -84.5000 5.5000 -60.5000
v  -88.3900 5.5000 -60.5000
v  -89.0820 4.0820 -60.5000
v  -84.0000 2.0000 59.5000
v  -84.0000 4.5000 -58.5000
v  -84.0000 2.0000 -58.5000
v  -84.0000 4.5000 59.5000
v  12.5000 4.5000 -58.5000
v  12.5000 2.0000 -58.5000
v  12.5000 4.5000 59.5000
v  12.5000 2.0000 59.5000
v  84.0000 2.0000 -58.5000
v  84.0000 4.5000 59.5000
v  84.0000 2.0000 59.5000
v  84.0000 4.5000 -58.5000
v  90.5000 -5.5000 -60.5000
v  90.5000 3.3900 60.5000
v  90.5000 -5.5000 60.5000
v  90.5000 3.3900 -60.5000
v  89.0820 4.0820 -60.5000
v  89.0820 4.0820 60.5000
v  88.3900 5.5000 -60.5000
v  88.3900 5.5000 60.5000
v  84.5000 5.5000 60.5000
v  84.5000 5.5000 -60.5000
v  84.5000 -5.5000 -60.5000
v  84.5000 -5.5000 60.5000
# 36 vertices

vn -0.5774 -0.5774 0.5774
vn 0.6473 -0.6473 0.4026
vn -0.4644 0.5142 0.7211
vn -0.3746 0.5997 0.7071
vn -0.5000 0.5000 0.7071
vn 0.6991 0.6991 0.1505
vn 0.0000 0.0000 1.0000
vn 0.6831 -0.6831 -0.2582
vn -0.5774 -0.5774 -0.5774
vn -0.3793 0.2369 -0.8944
vn 0.0000 0.0000 -1.0000
vn 0.5774 0.5774 -0.5774
vn -0.3746 0.5997 -0.7071
vn -0.6236 0.6268 -0.4671
vn -0.5774 0.5773 -0.5773
vn -0.5774 0.5774 0.5774
vn 0.0000 0.7071 -0.7071
vn 0.0000 -0.3162 -0.9487
vn 0.0000 0.7071 0.7071
vn 0.0000 -0.4472 0.8944
vn 0.5774 -0.5774 -0.5774
vn 0.5774 0.5773 0.5773
vn 0.5774 -0.5774 0.5774
vn 0.5816 0.5816 -0.5687
vn 0.5997 0.3746 0.7071
vn 0.5997 0.3746 -0.7071
vn 0.5000 0.5000 -0.7071
vn 0.5000 0.5000 0.7071
vn 0.3746 0.5997 -0.7071
vn 0.3746 0.5997 0.7071
vn -0.5774 0.5774 0.5773
vn -0.5774 0.5774 -0.5774
# 32 vertex normals

vt 0.4838 0.8468 0.8468
vt 0.4623 0.8468 0.8468
vt 0.4838 0.8191 0.8191
vt 0.4762 0.8125 0.8125
vt 0.4787 0.8170 0.8170
vt 0.4623 0.8125 0.8125
vt 0.0284 0.8468 0.8468
vt 0.4623 0.8655 0.8655
vt 0.0284 0.8655 0.8655
vt 0.0068 0.8468 0.8468
vt 0.0068 0.8191 0.8191
vt 0.0284 0.8125 0.8125
vt 0.0284 0.8004 0.8004
vt 0.4623 0.8004 0.8004
vt 0.4623 0.7955 0.7955
vt 0.0284 0.7955 0.7955
vt 0.4623 0.7906 0.7906
vt 0.0284 0.7906 0.7906
vt 0.0284 0.7629 0.7629
vt 0.4623 0.7629 0.7629
vt 0.0144 0.8125 0.8125
vt 0.0119 0.8170 0.8170
vt 0.6434 0.0208 0.0208
vt 0.6519 0.4249 0.4249
vt 0.6434 0.4249 0.4249
vt 0.6519 0.0208 0.0208
vt 0.6519 0.4334 0.4334
vt 0.9793 0.4249 0.4249
vt 0.9793 0.4334 0.4334
vt 0.9793 0.0208 0.0208
vt 0.9793 0.0123 0.0123
vt 0.6519 0.0123 0.0123
vt 0.8968 0.4334 0.4334
vt 0.8968 0.4249 0.4249
vt 0.8968 0.0208 0.0208
vt 0.8968 0.0123 0.0123
vt 0.7121 0.3474 0.3474
vt 0.7008 0.3382 0.3382
vt 0.7121 0.3382 0.3382
vt 0.7008 0.3474 0.3474
vt 0.7121 0.3543 0.3543
vt 0.7008 0.3543 0.3543
# 42 texture coords

g ramp
usemtl Circle
s 1
f 1/1/1 2/2/2 3/3/3 
s 2
f 4/4/4 5/5/5 6/6/6 
s 3
f 3/3/3 6/6/6 5/5/5 
s 4
f 2/2/7 6/6/7 3/3/3 
s 5
f 7/7/8 6/6/6 2/2/2 
s 6
f 1/8/1 7/7/8 2/2/2 
s 7
f 7/7/8 1/8/1 8/9/9 
s 8
f 8/10/9 9/11/10 7/7/11 
s 9
f 7/7/8 9/11/10 10/12/12 
s 10
f 6/6/6 7/7/8 10/12/12 
s 11
f 11/13/13 6/6/6 10/12/12 
s 12
f 6/6/6 11/13/13 4/14/4 
s 13
f 11/13/13 5/15/5 4/14/4 
s 14
f 5/15/5 11/13/13 12/16/14 
s 15
f 12/16/14 3/17/3 5/15/5 
s 16
f 3/17/3 12/16/14 9/18/10 
s 17
f 8/19/9 3/17/3 9/18/10 
s 18
f 3/17/3 8/19/9 1/20/1 
s 19
f 11/21/13 10/12/12 12/22/14 
s 20
f 12/22/14 10/12/12 9/11/10 
s 21
f 13/23/1 14/24/15 15/25/9 
s 22
f 14/24/15 13/23/1 16/26/16 
s 23
f 15/27/9 17/28/17 18/29/18 
s 24
f 17/28/17 15/27/9 14/24/15 
s 25
f 14/24/15 19/30/19 17/28/17 
s 26
f 19/30/19 14/24/15 16/26/16 
s 27
f 16/26/16 20/31/20 19/30/19 
s 28
f 20/31/20 16/26/16 13/32/1 
s 29
f 21/25/21 22/26/22 23/23/23 
s 30
f 22/26/22 21/25/21 24/24/24 
s 31
f 18/33/18 24/24/24 21/27/21 
s 32
f 24/24/11 18/33/18 17/34/17 
s 33
f 19/35/19 24/24/24 17/34/17 
s 34
f 24/24/24 19/35/19 22/26/22 
s 35
f 19/35/19 23/32/23 22/26/22 
s 36
f 23/32/23 19/35/19 20/36/20 
s 37
f 18/37/18 13/38/1 15/39/9 
s 38
f 13/38/1 18/37/18 20/40/20 
s 39
f 21/41/21 20/40/20 18/37/18 
s 40
f 20/40/20 21/41/21 23/42/23 
s 41
f 25/19/21 26/17/25 27/20/23 
s 42
f 26/17/25 25/19/21 28/18/26 
s 43
f 29/16/27 26/17/25 28/18/26 
s 44
f 26/17/25 29/16/27 30/15/28 
s 45
f 31/13/29 30/15/28 29/16/27 
s 46
f 30/15/28 31/13/29 32/14/30 
s 47
f 31/13/29 33/6/31 32/14/30 
s 48
f 33/6/31 31/13/29 34/12/32 
s 49
f 35/7/9 33/6/31 34/12/32 
s 50
f 35/7/9 34/12/32 28/11/26 
s 51
f 25/10/21 35/7/9 28/11/26 
s 52
f 31/21/29 29/22/27 34/12/32 
s 53
f 29/22/27 28/11/26 34/12/32 
s 54
f 27/8/23 35/7/9 25/9/21 
s 55
f 35/7/9 27/8/23 36/2/1 
s 56
f 33/6/31 35/7/9 36/2/1 
s 57
f 36/2/1 26/3/25 33/6/31 
s 58
f 26/3/25 30/5/28 33/6/31 
s 59
f 32/4/30 33/6/31 30/5/28 
s 60
f 27/1/23 26/3/25 36/2/1 
# 60 faces

