# 3ds Max Wavefront OBJ Exporter v0.97b - (c)2007 guruware
# File Created: 07.07.2018 23:05:01

mtllib light_sconce.mtl

#
# object light_sconce
#

v  -18.0000 69.0000 -0.0000
v  -18.0000 69.0000 -1.0000
v  -19.0000 67.0000 -1.0000
v  -14.0000 71.0000 -1.0000
v  -19.0000 65.0000 -1.0000
v  -5.9228 24.4711 -1.0000
v  -19.0000 67.0000 -0.0000
v  12.0000 88.0000 -0.9918
v  12.0000 88.0000 0.0009
v  11.0000 83.0000 -0.0000
v  11.0000 83.0000 -0.9918
v  7.4308 80.2501 -0.9918
v  1.8263 24.4753 -0.9918
v  1.0825 24.4753 -0.9918
v  5.9286 92.7844 -0.9918
v  3.8588 58.7393 -13.2642
v  1.5444 24.4524 -7.2875
v  0.0000 24.4501 -9.4036
v  0.0000 58.6737 -15.4540
v  4.2957 65.5021 -14.3926
v  0.0000 66.9738 -16.8431
v  -4.2957 65.5021 -14.3926
v  -3.8588 58.7393 -13.2642
v  -1.5444 24.4524 -7.2875
v  -19.0000 65.0000 -0.0000
v  4.2957 65.6485 -13.5625
v  0.0000 67.1202 -16.0131
v  0.0000 58.6737 -14.5994
v  3.8493 58.7391 -12.4097
v  0.0000 24.4511 -8.5736
v  1.5444 24.4534 -6.4575
v  3.3732 58.8855 -11.7298
v  1.0253 24.4100 -6.2483
v  2.0380 24.4061 -5.3993
v  6.4406 60.2512 -11.2078
v  7.6183 58.7735 -7.8654
v  2.2006 24.4093 -3.5037
v  2.2182 24.4047 -6.3261
v  1.5014 24.4087 -6.9283
v  6.9167 60.1048 -11.8878
v  8.0744 59.0348 -8.7082
v  2.6767 24.4079 -4.1837
v  2.5842 24.4764 -4.2299
v  5.1343 24.4724 -3.4394
v  11.4532 59.0348 -5.8159
v  8.5766 62.3036 -9.1183
v  12.2930 62.8198 -6.1215
v  11.4591 62.3422 -1.1913
v  10.7951 59.0348 -1.1916
v  3.6606 24.4756 -1.0672
v  -14.0000 71.0000 -0.0000
v  11.6045 59.0348 -1.5155
v  4.4406 24.4742 -1.5154
v  5.9143 24.4711 -3.7233
v  12.2589 59.0348 -6.1092
v  12.2391 62.1958 -1.6269
v  13.0730 62.6735 -6.4054
v  9.3566 62.1572 -9.4022
v  8.8769 59.0348 -9.0105
v  3.3642 24.4750 -4.5138
v  -12.0000 88.0000 -0.9918
v  -11.0000 83.0000 -0.9918
v  -11.0000 83.0000 -0.0000
v  -12.0000 88.0000 0.0009
v  -1.0825 24.4753 -0.9918
v  -1.8263 24.4753 -0.9918
v  -7.4308 80.2501 -0.9918
v  -5.9286 92.7844 -0.9918
v  -10.0000 92.0000 0.0009
v  -10.0000 92.0000 -0.9918
v  -7.6183 58.7735 -7.8654
v  -2.2006 24.4093 -3.5037
v  -2.0380 24.4061 -5.3993
v  -6.4406 60.2512 -11.2078
v  -3.3732 58.8855 -11.7298
v  -1.0253 24.4100 -6.2483
v  -2.2182 24.4047 -6.3261
v  -6.9167 60.1048 -11.8878
v  -3.8493 58.7391 -12.4097
v  -1.5014 24.4087 -6.9283
v  -5.1343 24.4724 -3.4394
v  -11.4532 59.0348 -5.8159
v  -10.7951 59.0348 -1.1916
v  -3.6606 24.4756 -1.0672
v  -11.4591 62.3422 -1.1913
v  -12.2930 62.8199 -6.1215
v  -8.5766 62.3036 -9.1183
v  -8.0744 59.0348 -8.7082
v  -2.5842 24.4764 -4.2299
v  -5.9143 24.4711 -3.7233
v  -12.2589 59.0348 -6.1092
v  -8.8769 59.0348 -9.0105
v  -3.3642 24.4750 -4.5138
v  -9.3566 62.1572 -9.4022
v  -13.0730 62.6735 -6.4054
v  -12.2391 62.1958 -1.6269
v  -11.6045 59.0348 -1.5155
v  -4.4406 24.4742 -1.5154
v  -5.9337 24.4732 -0.0000
v  -2.6767 24.4079 -4.1837
v  14.0000 71.0000 -1.0000
v  18.0000 69.0000 -1.0000
v  19.0000 67.0000 -1.0000
v  19.0000 65.0000 -1.0000
v  5.9228 24.4711 -1.0000
v  0.0000 0.0000 0.0192
v  -1.5298 0.0000 0.0192
v  -1.9057 0.0000 -2.2451
v  -1.5298 0.0000 -3.7315
v  0.0000 0.0000 -4.3472
v  1.5298 0.0000 -3.7315
v  1.9057 0.0000 -2.2451
v  1.5298 0.0000 0.0192
v  -5.2130 24.4756 -7.6316
v  -7.8233 24.4756 -3.5020
v  -6.2217 24.4756 0.0198
v  0.0000 24.4756 -12.0517
v  0.0000 24.4753 0.0058
v  6.2217 24.4756 0.0198
v  5.2130 24.4756 -7.6316
v  7.8233 24.4756 -3.5020
v  -6.7017 19.6154 0.0199
v  -8.4287 19.6154 -3.7674
v  -5.0537 16.4479 -3.2843
v  -5.6361 19.6154 -8.1298
v  0.0000 19.6154 -12.7194
v  -3.5666 16.4479 0.0174
v  6.7017 19.6154 0.0199
v  8.4287 19.6154 -3.7674
v  5.6361 19.6154 -8.1298
v  0.0000 16.4479 -9.7813
v  -3.0548 16.4479 -6.5983
v  3.0548 16.4479 -6.5983
v  5.0537 16.4479 -3.2843
v  3.5666 16.4479 0.0174
v  6.3383 99.0000 -2.6226
v  1.0253 24.4100 -2.6226
v  -1.0253 24.4100 -2.6226
v  -6.3383 99.0000 -2.6226
v  4.0000 103.0000 -2.6226
v  -4.0000 103.0000 -2.6226
v  0.0000 105.0000 -2.6226
v  4.0000 103.0000 -0.0000
v  6.3383 99.0000 -0.0000
v  0.0000 105.0000 -0.0000
v  -4.0000 103.0000 -0.0000
v  -6.3383 99.0000 -0.0000
v  -1.0682 24.4590 0.0009
v  1.0682 24.4590 0.0009
v  7.4308 80.2501 -1.8349
v  1.8224 24.4753 -1.8349
v  -4.2957 65.6485 -13.5625
v  17.0000 77.0000 -1.8349
v  15.0000 81.0000 -1.8349
v  -1.5444 24.4535 -6.4575
v  5.9446 24.4753 -1.8349
v  -6.0000 94.0000 0.0009
v  -6.0000 94.0000 -0.9918
v  11.0000 83.0000 -1.8349
v  15.0000 81.0000 -0.0000
v  17.0000 77.0000 -0.0000
v  5.9337 24.4732 -0.0000
v  -11.0000 83.0000 -1.8349
v  -7.4308 80.2501 -1.8349
v  -15.0000 81.0000 -0.0000
v  -15.0000 81.0000 -1.8349
v  -17.0000 77.0000 -1.8349
v  -17.0000 77.0000 -0.0000
v  6.0000 94.0000 -0.9918
v  -5.9446 24.4753 -1.8349
v  10.0000 92.0000 -0.9918
v  10.0000 92.0000 0.0009
v  6.0000 94.0000 0.0009
v  -1.8224 24.4753 -1.8349
v  19.0000 65.0000 -0.0000
v  14.0000 71.0000 -0.0000
v  18.0000 69.0000 -0.0000
v  19.0000 67.0000 -0.0000
# 178 vertices

vn -0.8944 0.4472 -0.0000
vn 0.0000 0.0000 -1.0000
vn 0.9806 -0.1961 -0.0000
vn 0.4974 -0.1633 -0.8520
vn 0.7980 -0.1554 -0.5823
vn 0.0000 -0.2492 -0.9685
vn 0.0000 -0.1804 -0.9836
vn 0.4629 -0.1556 -0.8726
vn 0.0000 -0.1651 -0.9863
vn -0.4629 -0.1556 -0.8726
vn -0.4974 -0.1633 -0.8520
vn -0.7980 -0.1554 -0.5823
vn -1.0000 0.0000 -0.0000
vn -0.4630 0.1554 0.8726
vn 0.0000 0.1651 0.9863
vn 0.0000 0.1802 0.9836
vn -0.4983 0.1630 0.8516
vn 0.0000 0.2483 0.9687
vn -0.7981 0.1547 0.5823
vn -0.2517 0.1842 0.9501
vn -0.6334 0.1634 0.7563
vn -0.8726 0.1795 0.4542
vn -0.6349 0.1990 0.7465
vn -0.9053 0.1748 0.3873
vn -0.9826 0.1656 0.0840
vn 0.8336 -0.1814 -0.5217
vn 0.6340 -0.1640 -0.7557
vn 0.2480 -0.1804 -0.9518
vn 0.6361 -0.1998 -0.7453
vn 0.9058 -0.1796 -0.3837
vn 0.9625 -0.1769 -0.2057
vn -0.6325 0.1802 0.7533
vn -0.2916 0.1683 0.9416
vn -0.9036 0.2630 0.3381
vn -0.9146 0.2098 0.3456
vn -0.6353 0.1956 0.7471
vn -0.9116 0.2298 0.3407
vn -0.9699 0.1985 -0.1408
vn -0.9720 0.1821 -0.1484
vn -0.8368 0.1709 -0.5201
vn -0.4472 0.8944 -0.0000
vn 0.9723 -0.1800 0.1489
vn 0.8195 -0.1699 0.5473
vn 0.9080 -0.2677 -0.3223
vn 0.9149 -0.2103 -0.3445
vn 0.9701 -0.1962 0.1427
vn 0.9118 -0.2316 -0.3391
vn 0.6358 -0.1962 -0.7465
vn 0.6332 -0.1806 -0.7526
vn 0.2916 -0.1690 -0.9415
vn -0.9806 -0.1961 -0.0000
vn 0.9053 0.1748 0.3873
vn 0.9826 0.1656 0.0840
vn 0.8726 0.1795 0.4542
vn 0.6349 0.1990 0.7465
vn 0.2517 0.1842 0.9501
vn 0.6334 0.1634 0.7563
vn -0.8336 -0.1814 -0.5217
vn -0.6361 -0.1998 -0.7453
vn -0.2480 -0.1804 -0.9518
vn -0.6340 -0.1640 -0.7557
vn 0.9036 0.2630 0.3381
vn 0.9146 0.2098 0.3456
vn 0.9720 0.1821 -0.1484
vn 0.8368 0.1709 -0.5201
vn 0.9699 0.1985 -0.1408
vn 0.9116 0.2298 0.3407
vn 0.6353 0.1956 0.7471
vn 0.6325 0.1802 0.7533
vn 0.2916 0.1683 0.9416
vn -0.9080 -0.2677 -0.3223
vn -0.9149 -0.2103 -0.3445
vn -0.6332 -0.1806 -0.7526
vn -0.2916 -0.1690 -0.9415
vn -0.6358 -0.1962 -0.7465
vn -0.9118 -0.2316 -0.3391
vn -0.9701 -0.1962 0.1427
vn -0.9723 -0.1800 0.1489
vn -0.8195 -0.1699 0.5473
vn 0.9853 0.1709 0.0052
vn 0.9853 0.1708 -0.0000
vn -0.9058 -0.1796 -0.3837
vn -0.9625 -0.1769 -0.2057
vn 0.0000 -1.0000 -0.0000
vn 0.0000 1.0000 -0.0000
vn 0.0000 1.0000 0.0000
vn -0.0000 1.0000 0.0000
vn 0.9852 0.1710 0.0104
vn -0.8535 -0.3476 0.3883
vn -0.9498 -0.3029 -0.0787
vn -0.8495 -0.5252 -0.0495
vn -0.9064 0.0900 0.4127
vn -0.9906 0.1263 -0.0534
vn -0.7447 0.1279 -0.6550
vn -0.7261 -0.2862 -0.6252
vn 0.0000 -0.2551 -0.9669
vn 0.0000 0.1361 -0.9907
vn 0.7447 0.1279 -0.6550
vn -0.8434 -0.3932 0.3661
vn 0.9064 0.0900 0.4127
vn 0.8535 -0.3476 0.3883
vn 0.9498 -0.3029 -0.0787
vn 0.9906 0.1263 -0.0534
vn 0.7261 -0.2862 -0.6252
vn 0.0000 -0.5960 -0.8030
vn -0.6954 -0.4719 -0.5420
vn -0.9899 -0.1368 -0.0373
vn -0.7547 -0.1799 -0.6310
vn 0.0000 -0.2199 -0.9755
vn 0.6954 -0.4719 -0.5420
vn 0.8495 -0.5252 -0.0495
vn -0.9792 -0.1212 0.1626
vn 0.8434 -0.3932 0.3661
vn 0.9899 -0.1368 -0.0373
vn 0.7547 -0.1799 -0.6310
vn 0.9792 -0.1212 0.1626
vn -0.9517 -0.3068 -0.0097
vn 0.3414 -0.0673 -0.9375
vn -0.9517 -0.3071 -0.0000
vn 0.3518 -0.0654 -0.9338
vn 0.3518 -0.0639 -0.9339
vn 0.3518 -0.0643 -0.9339
vn 0.8633 0.5047 -0.0000
vn -0.0827 0.9599 -0.2679
vn 0.4472 0.8944 -0.0000
vn -0.2305 0.9634 0.1365
vn -0.2556 0.9572 0.1360
vn 0.3518 -0.0631 -0.9339
vn 0.3518 -0.0631 -0.9340
vn -0.8633 0.5047 -0.0000
vn -0.8868 -0.0787 0.4555
vn -0.8178 -0.0562 0.5727
vn -0.9974 -0.0710 -0.0150
vn 0.8187 -0.0355 -0.5731
vn -0.9975 -0.0705 -0.0000
vn 0.8221 -0.0344 -0.5683
vn 0.9975 -0.0710 -0.0000
vn 0.3136 0.8590 -0.4046
vn 0.9974 -0.0705 -0.0150
vn 0.3136 0.8591 -0.4045
vn 0.4000 0.9026 -0.1592
vn -0.4564 0.8802 0.1300
vn -0.1364 0.9229 0.3600
vn -0.9950 0.1000 0.0023
vn -0.9950 0.1000 0.0046
vn -0.9980 -0.0626 0.0111
vn -0.9980 -0.0626 0.0110
vn -0.9979 -0.0635 0.0111
vn -0.9950 0.1000 -0.0000
vn -0.9979 -0.0639 0.0111
vn 0.4983 0.1630 0.8516
vn 0.7981 0.1547 0.5823
vn 0.4630 0.1554 0.8726
vn -0.9978 -0.0652 0.0111
vn -0.9977 -0.0673 0.0001
vn 0.9785 -0.2061 0.0028
vn 0.9785 -0.2062 -0.0000
vn 0.9785 -0.2060 0.0056
vn 0.6103 0.7922 -0.0000
vn 0.8944 0.4472 -0.0000
vn -0.6103 0.7922 -0.0000
vn -0.9785 -0.2061 0.0028
vn -0.9785 -0.2062 -0.0000
vn -0.9785 -0.2060 0.0056
vn 0.9979 -0.0635 0.0111
vn 0.9979 -0.0639 0.0111
vn 0.9978 -0.0652 0.0111
vn 0.9950 0.1000 0.0023
vn 0.9950 0.1000 0.0046
vn 0.9977 -0.0673 0.0001
vn 0.9950 0.1000 -0.0000
vn 0.9980 -0.0626 0.0110
vn 0.9980 -0.0626 0.0111
vn -0.4000 0.9026 -0.1592
vn 0.4564 0.8802 0.1300
vn 0.9517 -0.3068 -0.0097
vn 0.1364 0.9229 0.3600
vn 0.9517 -0.3071 -0.0000
vn -0.3136 0.8590 -0.4046
vn -0.9853 0.1709 0.0052
vn -0.9853 0.1708 -0.0000
vn -0.3136 0.8591 -0.4045
vn -0.9852 0.1710 0.0104
vn -0.8187 -0.0355 -0.5731
vn -0.8221 -0.0344 -0.5683
vn 0.8868 -0.0787 0.4555
vn 1.0000 0.0000 -0.0000
vn 0.8178 -0.0562 0.5727
vn -0.3518 -0.0639 -0.9339
vn -0.3518 -0.0643 -0.9339
vn -0.3518 -0.0631 -0.9339
vn -0.3518 -0.0631 -0.9340
vn 0.2304 0.9635 0.1365
vn -0.3518 -0.0654 -0.9338
vn 0.2556 0.9572 0.1360
vn -0.3414 -0.0673 -0.9375
vn 0.0826 0.9599 -0.2678
vn 0.0827 0.9599 -0.2679
# 198 vertex normals

vt 0.2838 0.5669 0.5669
vt 0.2917 0.5607 0.5607
vt 0.2799 0.5381 0.5381
vt 0.3461 0.5725 0.5725
vt 0.2782 0.5150 0.5150
vt 0.3184 0.0320 0.0320
vt 0.2692 0.5380 0.5380
vt 0.0740 0.9726 0.9726
vt 0.0749 0.9809 0.9809
vt 0.1170 0.9775 0.9775
vt 0.1166 0.9691 0.9691
vt 0.1433 0.9418 0.9418
vt 0.6168 0.9492 0.9492
vt 0.6175 0.9430 0.9430
vt 0.0395 0.9170 0.9170
vt 0.1836 0.4789 0.4789
vt 0.1439 0.0422 0.0422
vt 0.1295 0.0440 0.0440
vt 0.1345 0.4778 0.4778
vt 0.1928 0.5646 0.5646
vt 0.1358 0.5834 0.5834
vt 0.0783 0.5659 0.5659
vt 0.0855 0.4801 0.4801
vt 0.1150 0.0425 0.0425
vt 0.2670 0.5086 0.5086
vt 0.2015 0.5690 0.5690
vt 0.2589 0.5719 0.5719
vt 0.2420 0.4662 0.4662
vt 0.1925 0.4761 0.4761
vt 0.1735 0.0377 0.0377
vt 0.1540 0.0395 0.0395
vt 0.6660 0.8215 0.8215
vt 0.9631 0.8039 0.8039
vt 0.9614 0.7954 0.7954
vt 0.6513 0.7980 0.7980
vt 0.6666 0.7714 0.7714
vt 0.9637 0.7792 0.7792
vt 0.9623 0.8159 0.8159
vt 0.9628 0.8097 0.8097
vt 0.6677 0.8281 0.8281
vt 0.6576 0.8547 0.8547
vt 0.6635 0.7644 0.7644
vt 0.9629 0.7734 0.7734
vt 0.9614 0.7623 0.7623
vt 0.6507 0.7386 0.7386
vt 0.6781 0.5145 0.5145
vt 0.9779 0.5250 0.5250
vt 0.9742 0.5032 0.5032
vt 0.6756 0.4859 0.4859
vt 0.6513 0.5140 0.5140
vt 0.6422 0.4811 0.4811
vt 0.6631 0.4424 0.4424
vt 0.6816 0.4466 0.4466
vt 0.9757 0.4830 0.4830
vt 0.3568 0.5803 0.5803
vt 0.6756 0.5891 0.5891
vt 0.9714 0.5719 0.5719
vt 0.9714 0.5530 0.5530
vt 0.6723 0.5498 0.5498
vt 0.6485 0.5897 0.5897
vt 0.6407 0.5498 0.5498
vt 0.6511 0.5209 0.5209
vt 0.6768 0.5213 0.5213
vt 0.9766 0.5315 0.5315
vt 0.0717 0.8498 0.8498
vt 0.1141 0.8550 0.8550
vt 0.1148 0.8466 0.8466
vt 0.0729 0.8415 0.8415
vt 0.6132 0.9006 0.9006
vt 0.6127 0.8944 0.8944
vt 0.1397 0.8832 0.8832
vt 0.0352 0.9040 0.9040
vt 0.0340 0.8498 0.8498
vt 0.0377 0.8611 0.8611
vt 0.9632 0.8928 0.8928
vt 0.6424 0.9010 0.9010
vt 0.6455 0.9183 0.9183
vt 0.9803 0.9213 0.9213
vt 0.9650 0.9469 0.9469
vt 0.6440 0.9275 0.9275
vt 0.6454 0.9435 0.9435
vt 0.9759 0.9820 0.9820
vt 0.9640 0.9537 0.9537
vt 0.6446 0.9350 0.9350
vt 0.6336 0.6350 0.6350
vt 0.9476 0.6287 0.6287
vt 0.9442 0.5871 0.5871
vt 0.6336 0.6137 0.6137
vt 0.9739 0.5854 0.5854
vt 0.9822 0.6286 0.6286
vt 0.9727 0.6596 0.6596
vt 0.9429 0.6585 0.6585
vt 0.6282 0.6575 0.6575
vt 0.6329 0.6873 0.6873
vt 0.9464 0.6958 0.6958
vt 0.9438 0.6657 0.6657
vt 0.6290 0.6645 0.6645
vt 0.9716 0.6640 0.6640
vt 0.9801 0.7008 0.7008
vt 0.9684 0.7406 0.7406
vt 0.9400 0.7368 0.7368
vt 0.6315 0.7071 0.7071
vt 0.3306 0.0278 0.0278
vt 0.9660 0.8848 0.8848
vt 0.9787 0.8565 0.8565
vt 0.6450 0.8750 0.8750
vt 0.6431 0.8947 0.8947
vt 0.5622 0.7064 0.7064
vt 0.5463 0.6528 0.6528
vt 0.5230 0.6417 0.6417
vt 0.5000 0.6409 0.6409
vt 0.0184 0.6988 0.6988
vt 0.7847 0.3977 0.3977
vt 0.8058 0.3977 0.3977
vt 0.8109 0.3665 0.3665
vt 0.8058 0.3461 0.3461
vt 0.7847 0.3376 0.3376
vt 0.7637 0.3461 0.3461
vt 0.7585 0.3665 0.3665
vt 0.7637 0.3977 0.3977
vt 0.8523 0.3151 0.3151
vt 0.8234 0.3580 0.3580
vt 0.8392 0.3958 0.3958
vt 0.9089 0.2700 0.2700
vt 0.9051 0.3977 0.3977
vt 0.9709 0.3998 0.3998
vt 0.9627 0.3185 0.3185
vt 0.9890 0.3630 0.3630
vt 0.9400 0.1744 0.1744
vt 0.9064 0.1404 0.1404
vt 0.8819 0.1827 0.1827
vt 0.9898 0.1290 0.1290
vt 0.9401 0.0848 0.0848
vt 0.8695 0.0563 0.0563
vt 0.8491 0.1222 0.1222
vt 0.7771 0.1102 0.1102
vt 0.7728 0.0448 0.0448
vt 0.6766 0.0708 0.0708
vt 0.9139 0.2090 0.2090
vt 0.5814 0.1573 0.1573
vt 0.6318 0.1994 0.1994
vt 0.6610 0.1595 0.1595
vt 0.6201 0.1091 0.1091
vt 0.7047 0.1296 0.1296
vt 0.7793 0.1564 0.1564
vt 0.8340 0.1673 0.1673
vt 0.8011 0.3327 0.3327
vt 0.7961 0.3306 0.3306
vt 0.7888 0.3300 0.3300
vt 0.7274 0.1750 0.1750
vt 0.6886 0.2026 0.2026
vt 0.8158 0.3449 0.3449
vt 0.6660 0.2356 0.2356
vt 0.7683 0.3347 0.3347
vt 0.7812 0.3311 0.3311
vt 0.7572 0.3433 0.3433
vt 0.5738 0.7548 0.7548
vt 0.0147 0.7925 0.7925
vt 0.0140 0.8089 0.8089
vt 0.5743 0.8478 0.8478
vt 0.6045 0.7666 0.7666
vt 0.6092 0.8316 0.8316
vt 0.6162 0.8010 0.8010
vt 0.3063 0.0365 0.0365
vt 0.6151 0.7540 0.7540
vt 0.9792 0.6621 0.6621
vt 0.5729 0.7384 0.7384
vt 0.9868 0.7020 0.7020
vt 0.6338 0.8013 0.8013
vt 0.9764 0.7420 0.7420
vt 0.6181 0.8428 0.8428
vt 0.5736 0.8639 0.8639
vt 0.0124 0.8253 0.8253
vt 0.9729 0.9472 0.9472
vt 0.9876 0.9225 0.9225
vt 0.0144 0.7762 0.7762
vt 0.1350 0.5920 0.5920
vt 0.9722 0.8952 0.8952
vt 0.4965 0.5438 0.5438
vt 0.4997 0.0274 0.0274
vt 0.4920 0.0324 0.0324
vt 0.0681 0.5715 0.5715
vt 0.4917 0.5494 0.5494
vt 0.0735 0.4775 0.4775
vt 0.5812 0.5092 0.5092
vt 0.5678 0.5455 0.5455
vt 0.1048 0.0400 0.0400
vt 0.0853 0.0388 0.0388
vt 0.0268 0.4687 0.4687
vt 0.0124 0.5748 0.5748
vt 0.5371 0.0292 0.0292
vt 0.0190 0.8946 0.8946
vt 0.0260 0.9006 0.9006
vt 0.5251 0.5585 0.5585
vt 0.5277 0.5742 0.5742
vt 0.5848 0.5520 0.5520
vt 0.5257 0.5656 0.5656
vt 0.5976 0.5051 0.5051
vt 0.5539 0.0303 0.0303
vt 0.4379 0.5589 0.5589
vt 0.4341 0.5680 0.5680
vt 0.4694 0.5580 0.5580
vt 0.4680 0.5443 0.5443
vt 0.3806 0.5535 0.5535
vt 0.3952 0.5459 0.5459
vt 0.3818 0.5096 0.5096
vt 0.3655 0.5054 0.5054
vt 0.4100 0.0307 0.0307
vt 0.0302 0.9200 0.9200
vt 0.4268 0.0296 0.0296
vt 0.0404 0.9600 0.9600
vt 0.4315 0.5742 0.5742
vt 0.0363 0.9711 0.9711
vt 0.0230 0.9257 0.9257
vt 0.4643 0.0278 0.0278
vt 0.4720 0.0328 0.0328
vt 0.4756 0.5392 0.5392
vt 0.6585 0.7733 0.7733
vt 0.6443 0.7986 0.7986
vt 0.4926 0.6300 0.6300
vt 0.0230 0.6865 0.6865
vt 0.6581 0.8214 0.8214
vt 0.0183 0.7105 0.7105
vt 0.5762 0.7153 0.7153
vt 0.5489 0.6392 0.6392
vt 0.5158 0.6272 0.6272
vt 0.6543 0.4406 0.4406
vt 0.6339 0.4798 0.4798
vt 0.6451 0.5142 0.5142
# 229 texture coords

o light_sconce
g light_sconce
usemtl light_sconce_diffuse_shader
s 1
f 1/1/1 2/2/1 3/3/1 
f 3/3/2 2/2/2 4/4/2 
f 5/5/2 3/3/2 4/4/2 
f 6/6/2 5/5/2 4/4/2 
f 3/3/1 7/7/1 1/1/1 
f 8/8/3 9/9/3 10/10/3 
f 10/10/3 11/11/3 8/8/3 
f 12/12/2 13/13/2 14/14/2 
f 15/15/2 12/12/2 14/14/2 
f 16/16/4 17/17/5 18/18/6 
f 18/18/6 19/19/7 16/16/4 
f 20/20/8 16/16/4 19/19/7 
f 19/19/7 21/21/9 20/20/8 
f 22/22/10 21/21/9 19/19/7 
f 19/19/7 23/23/11 22/22/10 
f 23/23/11 19/19/7 18/18/6 
f 18/18/6 24/24/12 23/23/11 
f 5/5/13 25/25/13 7/7/13 
f 26/26/14 27/27/15 28/28/16 
f 28/28/16 29/29/17 26/26/14 
f 29/29/17 28/28/16 30/30/18 
f 30/30/18 31/31/19 29/29/17 
f 32/32/20 33/33/21 34/34/22 
f 34/34/22 35/35/23 32/32/20 
f 36/36/24 35/35/23 34/34/22 
f 34/34/22 37/37/25 36/36/24 
f 7/7/13 3/3/13 5/5/13 
f 38/38/26 39/39/27 29/40/28 
f 29/40/28 40/41/29 38/38/26 
f 41/42/30 42/43/31 38/44/26 
f 38/44/26 40/45/29 41/42/30 
f 41/46/32 43/47/33 44/48/34 
f 44/48/34 45/49/35 41/46/32 
f 46/50/36 41/46/32 45/49/35 
f 45/49/35 47/51/37 46/50/36 
f 48/52/38 47/51/37 45/49/35 
f 45/49/35 49/53/39 48/52/38 
f 49/53/39 45/49/35 44/48/34 
f 44/48/34 50/54/40 49/53/39 
f 2/2/41 1/1/41 51/55/41 
f 52/56/42 53/57/43 54/58/44 
f 54/58/44 55/59/45 52/56/42 
f 56/60/46 52/56/42 55/59/45 
f 55/59/45 57/61/47 56/60/46 
f 58/62/48 57/61/47 55/59/45 
f 55/59/45 59/63/49 58/62/48 
f 59/63/49 55/59/45 54/58/44 
f 54/58/44 60/64/50 59/63/49 
f 61/65/51 62/66/51 63/67/51 
f 63/67/51 64/68/51 61/65/51 
f 65/69/2 66/70/2 67/71/2 
f 68/72/2 65/69/2 67/71/2 
f 69/73/1 70/74/1 61/65/1 
f 61/65/1 64/68/1 69/73/1 
f 71/75/52 72/76/53 73/77/54 
f 73/77/54 74/78/55 71/75/52 
f 75/79/56 74/78/55 73/77/54 
f 73/77/54 76/80/57 75/79/56 
f 51/55/41 4/4/41 2/2/41 
f 77/81/58 78/82/59 79/83/60 
f 79/83/60 80/84/61 77/81/58 
f 81/85/62 82/86/63 83/87/64 
f 83/87/64 84/88/65 81/85/62 
f 85/89/66 83/87/64 82/86/63 
f 82/86/63 86/90/67 85/89/66 
f 87/91/68 86/90/67 82/86/63 
f 82/86/63 88/92/69 87/91/68 
f 88/92/69 82/86/63 81/85/62 
f 81/85/62 89/93/70 88/92/69 
f 90/94/71 91/95/72 92/96/73 
f 92/96/73 93/97/74 90/94/71 
f 94/98/75 92/96/73 91/95/72 
f 91/95/72 95/99/76 94/98/75 
f 96/100/77 95/99/76 91/95/72 
f 91/95/72 97/101/78 96/100/77 
f 97/101/78 91/95/72 90/94/71 
f 90/94/71 98/102/79 97/101/78 
f 4/4/80 51/55/81 99/103/80 
f 88/104/82 78/105/59 77/106/58 
f 77/106/58 100/107/83 88/104/82 
f 101/108/2 102/109/2 103/110/2 
f 104/111/2 101/108/2 103/110/2 
f 104/111/2 105/112/2 101/108/2 
f 106/113/84 107/114/84 108/115/84 
f 109/116/84 106/113/84 108/115/84 
f 109/116/84 110/117/84 106/113/84 
f 110/117/84 111/118/84 106/113/84 
f 111/118/84 112/119/84 106/113/84 
f 112/119/84 113/120/84 106/113/84 
f 114/121/85 115/122/85 116/123/86 
f 117/124/86 114/121/85 116/123/86 
f 118/125/86 117/124/86 116/123/86 
f 117/124/86 118/125/86 119/126/87 
f 117/124/86 119/126/87 120/127/85 
f 119/126/87 121/128/85 120/127/85 
f 99/103/80 6/6/88 4/4/80 
f 122/129/89 123/130/90 124/131/91 
f 123/130/90 122/129/89 116/132/92 
f 116/132/92 115/133/93 123/130/90 
f 123/130/90 115/133/93 114/134/94 
f 114/134/94 125/135/95 123/130/90 
f 126/136/96 125/135/95 114/134/94 
f 114/134/94 117/137/97 126/136/96 
f 126/136/96 117/137/97 120/138/98 
f 124/131/91 127/139/99 122/129/89 
f 119/140/100 128/141/101 129/142/102 
f 129/142/102 121/143/103 119/140/100 
f 120/138/98 121/143/103 129/142/102 
f 129/142/102 130/144/104 120/138/98 
f 120/138/98 130/144/104 126/136/96 
f 131/145/105 126/136/96 130/144/104 
f 125/135/95 126/136/96 131/145/105 
f 131/145/105 132/146/106 125/135/95 
f 125/135/95 132/146/106 124/131/91 
f 124/131/91 123/130/90 125/135/95 
f 127/139/99 124/131/91 108/147/107 
f 108/147/107 124/131/91 132/146/106 
f 132/146/106 109/148/108 108/147/107 
f 110/149/109 109/148/108 132/146/106 
f 132/146/106 131/145/105 110/149/109 
f 110/149/109 131/145/105 133/150/110 
f 130/144/104 133/150/110 131/145/105 
f 134/151/111 133/150/110 130/144/104 
f 130/144/104 129/142/102 134/151/111 
f 134/151/111 129/142/102 128/141/101 
f 108/147/107 107/152/112 127/139/99 
f 128/141/101 135/153/113 134/151/111 
f 112/154/114 134/151/111 135/153/113 
f 133/150/110 134/151/111 112/154/114 
f 112/154/114 111/155/115 133/150/110 
f 133/150/110 111/155/115 110/149/109 
f 135/153/113 113/156/116 112/154/114 
f 136/157/2 137/158/2 138/159/2 
f 136/157/2 138/159/2 139/160/2 
f 136/157/2 139/160/2 140/161/2 
f 139/160/2 141/162/2 140/161/2 
f 141/162/2 142/163/2 140/161/2 
f 6/6/117 99/164/117 25/25/117 
f 88/92/118 89/93/118 93/97/118 
f 25/25/119 5/5/119 6/6/119 
f 93/97/120 92/96/121 88/92/122 
f 136/157/123 140/161/123 143/165/123 
f 87/166/124 94/98/124 95/99/124 
f 143/165/123 144/167/123 136/157/123 
f 95/99/124 86/168/124 87/166/124 
f 140/161/125 142/163/125 145/169/125 
f 86/168/126 95/99/126 96/100/126 
f 145/169/125 143/165/125 140/161/125 
f 96/100/127 85/170/127 86/168/127 
f 142/163/41 141/162/41 146/171/41 
f 87/91/128 88/92/122 92/96/121 
f 146/171/41 145/169/41 142/163/41 
f 92/96/121 94/98/129 87/91/128 
f 141/162/130 139/160/130 147/172/130 
f 71/75/131 88/104/131 100/107/131 
f 147/172/130 146/171/130 141/162/130 
f 100/107/132 72/76/132 71/75/132 
f 139/160/133 138/159/133 148/173/133 
f 76/80/134 80/84/134 79/83/134 
f 148/173/135 147/172/135 139/160/135 
f 79/83/136 75/79/136 76/80/136 
f 137/158/137 136/157/137 144/167/137 
f 75/79/138 79/174/138 78/175/138 
f 144/167/139 149/176/139 137/158/139 
f 78/175/138 74/78/140 75/79/138 
f 20/20/141 21/21/141 27/177/141 
f 74/78/142 78/175/142 88/178/142 
f 27/177/141 26/26/141 20/20/141 
f 88/178/143 71/75/143 74/78/143 
f 150/179/144 151/180/145 13/181/144 
f 152/182/146 22/22/147 23/23/148 
f 13/181/144 12/183/149 150/179/144 
f 23/23/148 79/184/150 152/182/146 
f 153/185/2 150/179/2 154/186/2 
f 79/184/151 155/187/152 30/188/18 
f 30/188/18 28/189/16 79/184/151 
f 152/182/153 79/184/151 28/189/16 
f 28/189/16 27/190/15 152/182/153 
f 155/187/154 79/184/150 23/23/148 
f 153/185/2 156/191/2 150/179/2 
f 23/23/155 24/24/155 155/187/155 
f 156/191/2 151/180/2 150/179/2 
f 157/192/41 158/193/41 70/74/41 
f 150/179/2 159/194/2 154/186/2 
f 70/74/41 69/73/41 157/192/41 
f 10/195/125 160/196/125 11/197/125 
f 158/193/2 68/72/2 67/71/2 
f 160/196/125 154/186/125 11/197/125 
f 70/74/2 158/193/2 67/71/2 
f 154/186/125 159/194/125 11/197/125 
f 62/66/2 61/65/2 70/74/2 
f 153/185/156 161/198/157 162/199/156 
f 62/66/2 70/74/2 67/71/2 
f 162/199/156 156/191/158 153/185/156 
f 163/200/159 62/201/159 67/202/159 
f 153/185/160 154/186/160 160/196/160 
f 67/202/159 164/203/159 163/200/159 
f 160/196/160 161/198/160 153/185/160 
f 165/204/1 166/205/1 167/206/1 
f 12/183/161 11/197/161 159/194/161 
f 167/206/1 168/207/1 165/204/1 
f 159/194/161 150/179/161 12/183/161 
f 99/208/162 168/207/163 167/206/162 
f 15/15/2 169/209/2 12/12/2 
f 167/206/162 170/210/164 99/208/162 
f 169/209/2 171/211/2 12/12/2 
f 165/204/41 63/212/41 62/201/41 
f 171/211/2 11/11/2 12/12/2 
f 166/205/41 165/204/41 62/201/41 
f 171/211/2 8/8/2 11/11/2 
f 163/200/41 166/205/41 62/201/41 
f 8/8/160 171/211/160 172/213/160 
f 166/205/2 163/200/2 164/203/2 
f 172/213/160 9/9/160 8/8/160 
f 167/206/2 166/205/2 164/203/2 
f 171/211/125 169/209/125 173/214/125 
f 170/210/2 167/206/2 164/203/2 
f 173/214/125 172/213/125 171/211/125 
f 174/215/2 170/210/2 164/203/2 
f 16/16/165 29/29/166 31/31/167 
f 66/216/168 174/215/169 164/203/168 
f 31/31/170 17/17/170 16/16/170 
f 164/203/168 67/217/171 66/216/168 
f 16/16/165 20/20/172 26/26/173 
f 27/177/174 21/21/174 22/22/174 
f 26/26/173 29/29/166 16/16/165 
f 22/22/174 152/182/174 27/177/174 
f 41/218/175 40/219/175 35/35/175 
f 175/220/176 162/221/176 105/112/176 
f 35/35/177 36/36/177 41/218/177 
f 105/112/178 104/111/178 175/220/178 
f 40/219/179 29/222/179 32/32/179 
f 162/223/180 176/224/181 101/108/180 
f 32/32/179 35/35/182 40/219/179 
f 101/108/180 105/112/183 162/223/180 
f 29/40/184 39/39/184 33/33/184 
f 176/224/125 177/225/125 102/109/125 
f 33/33/185 32/32/185 29/40/185 
f 102/109/125 101/108/125 176/224/125 
f 42/43/186 41/42/186 36/36/186 
f 178/226/187 175/220/187 104/111/187 
f 36/36/188 37/37/188 42/43/188 
f 104/111/187 103/110/187 178/226/187 
f 59/63/189 41/46/190 46/50/191 
f 103/110/160 102/109/160 177/225/160 
f 46/50/191 58/62/192 59/63/189 
f 177/225/160 178/226/160 103/110/160 
f 56/227/193 57/228/193 47/51/193 
f 41/46/190 59/63/189 60/64/194 
f 47/51/195 48/52/195 56/227/195 
f 60/64/196 43/47/196 41/46/196 
f 57/228/197 58/229/198 46/50/197 
f 46/50/197 47/51/197 57/228/197 
# 0 polygons - 253 triangles

