# 3ds Max Wavefront OBJ Exporter v0.97b - (c)2007 guruware
# File Created: 10.10.2017 18:44:27

mtllib Lab Counter Cap.mtl

#
# object ABY_LabCounter_Cap
#

v  0.0000 68.0000 0.0000
v  0.0000 68.0000 -9.1484
v  0.0000 72.0000 -9.1484
v  0.0000 68.0000 109.7500
v  0.0000 72.0000 118.8750
v  0.0000 68.0000 118.8750
v  -27.2969 68.0000 118.8750
v  -22.5313 68.0000 109.7500
v  0.0000 0.0000 109.7500
v  0.0000 0.0000 0.0000
v  -22.5313 0.0000 0.0000
v  -23.5313 0.0000 108.7500
v  -22.5313 0.0000 109.7500
v  -23.5313 0.0000 1.0000
v  -27.2969 68.0000 -9.1484
v  -22.5313 68.0000 0.0000
v  -29.4688 68.0000 -8.2109
v  -23.5313 68.0000 1.0000
v  -31.0938 68.0000 -6.5781
v  -32.0000 68.0000 -4.4141
v  -23.5313 68.0000 108.7500
v  -32.0000 68.0000 114.1875
v  -31.0938 68.0000 116.3750
v  -29.4688 68.0000 118.0000
v  -32.0000 72.0000 114.1875
v  -32.0000 72.0000 -4.4141
v  -31.0938 72.0000 116.3750
v  -27.2969 72.0000 118.8750
v  -29.4688 72.0000 118.0000
v  -31.0938 72.0000 -6.5781
v  -29.4688 72.0000 -8.2109
v  -27.2969 72.0000 -9.1484
# 32 vertices

vn 1.0000 0.0000 -0.0000
vn 0.0000 -1.0000 -0.0000
vn -0.9804 0.0000 -0.1970
vn -0.9951 0.0000 0.0986
vn -0.7319 0.6657 0.1456
vn -0.7319 0.6653 -0.1471
vn -0.6204 0.6657 0.4146
vn -0.1456 0.6841 0.7147
vn -0.4120 0.6648 0.6232
vn 0.0000 1.0000 -0.0000
vn 0.0000 0.7071 -0.7071
vn 0.0000 0.0000 1.0000
vn -0.1903 0.0000 0.9817
vn -0.5515 0.0000 0.8342
vn -0.8315 0.0000 0.5556
vn -0.9239 0.0000 0.3827
vn -0.8311 0.0000 -0.5562
vn -0.6197 0.6663 -0.4147
vn -0.4193 0.6669 -0.6160
vn -0.5627 0.0000 -0.8267
vn -0.2023 0.0000 -0.9793
vn -0.1512 0.6643 -0.7320
vn 0.0000 0.0000 -1.0000
vn -0.3827 0.0000 0.9239
vn -0.9239 0.0000 -0.3827
vn -0.3827 0.0000 -0.9239
# 26 vertex normals

vt 0.7983 0.0713 0.0713
vt 0.7983 0.0249 0.0249
vt 0.8184 0.0249 0.0249
vt 0.7983 0.6235 0.6235
vt 0.8184 0.6697 0.6697
vt 0.6021 0.6682 0.6682
vt 0.7397 0.6682 0.6682
vt 0.7158 0.7144 0.7144
vt 0.6021 0.7144 0.7144
vt 0.1631 0.0869 0.0869
vt 0.5132 0.0869 0.0869
vt 0.5132 0.3037 0.3037
vt 0.1631 0.3037 0.3037
vt 0.5132 0.0151 0.0151
vt 0.1663 0.0117 0.0117
vt 0.1631 0.0151 0.0151
vt 0.5098 0.0117 0.0117
vt 0.7725 0.9945 0.9945
vt 0.6353 0.9946 0.9946
vt 0.6353 0.9486 0.9486
vt 0.7534 0.9487 0.9487
vt 0.7837 0.9898 0.9898
vt 0.7559 0.9424 0.9424
vt 0.7920 0.9826 0.9826
vt 0.7959 0.9701 0.9701
vt 0.7573 0.3931 0.3931
vt 0.7964 0.3657 0.3657
vt 0.7925 0.3604 0.3604
vt 0.7559 0.3916 0.3916
vt 0.7837 0.3550 0.3550
vt 0.7725 0.3506 0.3506
vt 0.7983 0.6697 0.6697
vt 0.9995 0.0488 0.0488
vt 0.9995 0.6460 0.6460
vt 0.9795 0.6460 0.6460
vt 0.9795 0.0488 0.0488
vt 0.9751 0.6567 0.6567
vt 0.9556 0.6697 0.6697
vt 0.9668 0.6650 0.6650
vt 0.8184 0.6897 0.6897
vt 0.9556 0.6897 0.6897
vt 0.9849 0.6887 0.6887
vt 1.0000 0.6765 0.6765
vt 0.9995 0.0244 0.0244
vt 0.9751 0.0381 0.0381
vt 0.9668 0.0298 0.0298
vt 0.9795 0.0054 0.0054
vt 0.9561 0.0054 0.0054
vt 0.9556 0.0254 0.0254
vt 0.8179 0.0049 0.0049
vt 0.1288 0.3477 0.3477
vt 0.0049 0.3477 0.3477
vt 0.0049 0.0063 0.0063
vt 0.1288 0.0063 0.0063
vt 0.1376 0.3472 0.3472
vt 0.1376 0.0063 0.0063
vt 0.6680 0.0063 0.0063
vt 0.6680 0.3472 0.3472
vt 0.6777 0.3472 0.3472
vt 0.6782 0.0068 0.0068
vt 0.7920 0.3477 0.3477
vt 0.7930 0.0063 0.0063
# 62 texture coords

g ABY_LabCounter_Cap
usemtl ABY_LabCounter_Diffuse_shader
s 1
f 1/1/1 2/2/1 3/3/1 
s 2
f 4/4/1 1/1/1 3/3/1 
s 3
f 3/3/1 5/5/1 4/4/1 
s 4
f 6/6/2 7/7/2 8/8/2 
s 5
f 8/8/2 4/9/2 6/6/2 
s 6
f 9/10/1 10/11/1 1/12/1 
s 7
f 1/12/1 4/13/1 9/10/1 
s 8
f 11/14/2 10/11/2 9/10/2 
s 9
f 11/14/2 9/10/2 12/15/2 
s 10
f 9/10/2 13/16/2 12/15/2 
s 11
f 14/17/2 11/14/2 12/15/2 
s 12
f 15/18/2 2/19/2 1/20/2 
s 13
f 1/20/2 16/21/2 15/18/2 
s 14
f 16/21/2 17/22/2 15/18/2 
s 15
f 17/22/2 16/21/2 18/23/2 
s 16
f 18/23/2 19/24/2 17/22/2 
s 17
f 18/23/2 20/25/2 19/24/2 
s 18
f 20/25/2 18/23/2 21/26/2 
s 19
f 21/26/2 22/27/2 20/25/2 
s 20
f 21/26/2 23/28/2 22/27/2 
s 21
f 23/28/2 21/26/2 8/29/2 
s 22
f 8/29/2 24/30/2 23/28/2 
s 23
f 8/29/2 7/31/2 24/30/2 
s 24
f 4/4/1 5/5/1 6/32/1 
s 25
f 20/33/3 22/34/4 25/35/5 
s 26
f 25/35/5 26/36/6 20/33/3 
s 27
f 27/37/7 26/36/6 25/35/5 
s 28
f 27/37/7 28/38/8 26/36/6 
s 29
f 27/37/7 29/39/9 28/38/8 
s 30
f 5/5/10 3/3/11 26/36/6 
s 31
f 28/38/8 5/5/10 26/36/6 
s 32
f 6/40/12 5/5/12 28/38/12 
s 33
f 28/38/8 7/41/13 6/40/12 
s 34
f 24/42/14 7/41/13 28/38/8 
s 35
f 28/38/8 29/39/9 24/42/14 
s 36
f 23/43/15 24/42/14 29/39/9 
s 37
f 29/39/9 27/37/7 23/43/15 
s 38
f 22/34/16 23/43/15 27/37/7 
s 39
f 27/37/7 25/35/5 22/34/4 
s 40
f 19/44/17 20/33/3 26/36/6 
s 41
f 26/36/6 30/45/18 19/44/17 
s 42
f 31/46/19 30/45/18 26/36/6 
s 43
f 30/45/18 31/46/19 17/47/20 
s 44
f 15/48/21 17/47/20 31/46/19 
s 45
f 31/46/19 32/49/22 15/48/21 
s 46
f 2/50/23 15/48/21 32/49/22 
s 47
f 32/49/22 3/3/11 2/50/23 
s 48
f 3/3/11 32/49/22 31/46/19 
s 49
f 3/3/11 31/46/19 26/36/6 
s 50
f 17/47/20 19/44/17 30/45/18 
s 51
f 13/51/24 9/52/12 4/53/12 
s 52
f 4/53/12 8/54/24 13/51/24 
s 53
f 12/55/16 13/51/24 8/54/24 
s 54
f 8/54/24 21/56/16 12/55/16 
s 55
f 12/55/16 21/56/16 18/57/25 
s 56
f 18/57/25 14/58/25 12/55/16 
s 57
f 11/59/26 14/58/25 18/57/25 
s 58
f 18/57/25 16/60/26 11/59/26 
s 59
f 10/61/23 11/59/26 16/60/26 
s 60
f 16/60/26 1/62/23 10/61/23 
# 60 faces

